<?xml version="1.0" standalone="no"?><!DOCTYPE svg PUBLIC "-//W3C//DTD SVG 1.1//EN" "http://www.w3.org/Graphics/SVG/1.1/DTD/svg11.dtd"><svg t="1485335243746" class="icon" style="" viewBox="0 0 1024 1024" version="1.1" xmlns="http://www.w3.org/2000/svg" p-id="6530" xmlns:xlink="http://www.w3.org/1999/xlink" width="64" height="64"><defs><style type="text/css"></style></defs><path d="M926.127 888.688l-376.771-376.745 375.147-375.122c10.277-10.301 10.277-27.016 0-37.315-10.328-10.276-27.017-10.276-37.317 0l-375.134 375.135-376.756-376.729c-10.328-10.353-27.094-10.353-37.421 0-10.328 10.301-10.328 27.066 0 37.393l376.763 376.75-375.966 375.967c-10.302 10.299-10.302 26.991 0 37.288 10.303 10.305 27.016 10.305 37.294 0l375.978-375.953 376.763 376.754c10.329 10.329 27.093 10.329 37.421 0 10.329-10.328 10.329-27.067 0.001-37.42z" p-id="6531"></path></svg>