<?xml version="1.0" standalone="no"?><!DOCTYPE svg PUBLIC "-//W3C//DTD SVG 1.1//EN" "http://www.w3.org/Graphics/SVG/1.1/DTD/svg11.dtd"><svg t="1485057925216" class="icon" style="" viewBox="0 0 1024 1024" version="1.1" xmlns="http://www.w3.org/2000/svg" p-id="8632" xmlns:xlink="http://www.w3.org/1999/xlink" width="64" height="64"><defs><style type="text/css"></style></defs><path d="M511.986185 939.572122c-4.206812 0-8.444323-1.358951-12.006452-4.161786C346.512457 814.70216 244.207419 698.1834 185.408245 621.691261c-62.621223-81.46336-90.208535-135.190005-92.511997-139.755997-21.496593-40.463574-32.857339-86.73748-32.857339-133.836171 0-70.703295 24.988114-137.266293 70.362534-187.42774 45.867654-50.706869 107.009176-78.631872 172.161035-78.631872 51.155077 0 100.069113 17.252943 141.454686 49.89334 40.120766 31.642674 70.13536 75.222215 86.799902 126.028345 3.347235 10.203386-2.211365 21.187555-12.414751 24.534789-10.205433 3.346211-21.187555-2.211365-24.534789-12.414751-29.263487-89.214904-106.143459-149.156088-191.30607-149.156088-112.286366 0-203.637933 101.910041-203.637933 227.173976 0 40.828894 9.822716 80.862679 28.40698 115.770723 0.079818 0.149403 0.156566 0.298805 0.232291 0.449231 0.25992 0.518816 27.348881 54.057173 89.517803 134.768403 57.358359 74.465992 157.168576 187.956789 306.937624 305.757752 8.44023 6.638187 9.900487 18.86158 3.2623 27.301809C523.445168 937.025113 517.744329 939.572122 511.986185 939.572122z" p-id="8633" fill="#2c2c2c"></path><path d="M512.694313 939.572122c-5.758144 0-11.458983-2.545986-15.294334-7.424086-6.639211-8.44023-5.178953-20.662599 3.2623-27.301809 150.306284-118.222565 250.335489-232.121662 307.780829-306.85269 61.84658-80.456427 88.413656-133.150556 88.674599-133.673465 0.074701-0.150426 0.152473-0.300852 0.232291-0.449231 18.583241-34.909068 28.40698-74.941829 28.40698-115.770723 0-125.263935-91.351568-227.173976-203.637933-227.173976-85.163635 0-162.043606 59.941184-191.30607 149.156088-3.347235 10.204409-14.335497 15.758915-24.534789 12.414751-10.203386-3.347235-15.760962-14.331403-12.414751-24.534789 16.664541-50.806129 46.679136-94.385671 86.798878-126.028345 41.385573-32.640398 90.300632-49.894364 141.455709-49.894364 65.151859 0 126.293381 27.926026 172.161035 78.631872 45.373397 50.161447 70.362534 116.724445 70.362534 187.42774 0 47.097668-11.361769 93.371574-32.856315 133.836171-2.300392 4.559852-29.886681 58.286498-92.511997 139.755997-58.800197 76.492138-161.105235 193.009875-314.571489 313.718051C521.138636 938.213171 516.900102 939.572122 512.694313 939.572122z" p-id="8634" fill="#2c2c2c"></path></svg>