<?xml version="1.0" standalone="no"?><!DOCTYPE svg PUBLIC "-//W3C//DTD SVG 1.1//EN" "http://www.w3.org/Graphics/SVG/1.1/DTD/svg11.dtd"><svg t="1485271098553" class="icon" style="" viewBox="0 0 1121 1024" version="1.1" xmlns="http://www.w3.org/2000/svg" p-id="17364" xmlns:xlink="http://www.w3.org/1999/xlink" width="70.0625" height="64"><defs><style type="text/css"></style></defs><path d="M1034.644211 366.565053c0-153.330526-111.831579-277.827368-249.532632-277.827368-84.884211 0-162.223158 39.343158-225.818947 114.256842l0 0.026947c-0.646737 0.727579-1.347368 1.347368-1.994105 2.074947-63.407158-74.832842-140.961684-114.176-225.818947-114.176-137.566316 0-249.478737 124.604632-249.478737 277.773474 0 78.605474 16.518737 132.069053 60.793263 182.972632l354.842947 368.936421c24.198737 24.171789 41.903158 36.325053 59.607579 36.325053 17.758316 0 35.543579-12.207158 59.984842-36.567579l1.050947-1.104842c0.323368-0.296421 0.565895-0.512 0.835368-0.781474l20.48-21.288421 23.417263-24.225684-0.053895-0.053895 311.053474-323.610947C1018.098526 509.763368 1034.644211 444.981895 1034.644211 366.565053zM340.102737 268.611368c-33.010526 0-58.960842 9.296842-77.042526 27.674947-31.663158 32.121263-31.258947 82.674526-31.258947 83.186526 0.188632 12.261053-9.566316 22.420211-21.854316 22.635789-0.134737 0-0.296421 0-0.431158 0-12.045474 0-21.962105-9.593263-22.231579-21.719579-0.080842-2.802526-1.024-69.254737 43.708632-115.038316 26.812632-27.405474 63.514947-41.310316 109.136842-41.310316 12.288 0 22.231579 9.997474 22.231579 22.285474S352.390737 268.611368 340.102737 268.611368z" p-id="17365" fill="rgb(248,89,89)"></path></svg>