<?xml version="1.0" standalone="no"?><!DOCTYPE svg PUBLIC "-//W3C//DTD SVG 1.1//EN" "http://www.w3.org/Graphics/SVG/1.1/DTD/svg11.dtd"><svg t="1485057761015" class="icon" style="" viewBox="0 0 1024 1024" version="1.1" xmlns="http://www.w3.org/2000/svg" p-id="2636" xmlns:xlink="http://www.w3.org/1999/xlink" width="64" height="64"><defs><style type="text/css"></style></defs><path class="homePage" d="M1013.078 486.174l-455.439-432.625c0 0-18.076-20.191-45.619-20.191-29.854 0-45.558 20.191-45.558 20.191l-455.502 432.625c-12.652 11.966-12.652 31.348 0 43.312 12.526 11.903 30.289 2.804 42.815-9.159l30.535-28.98 429.017-399.845 456.935 432.313c12.527 7.604 31.909 16.079 42.814 5.609 12.592-11.902 12.592-31.347 0-43.25v0zM849.362 466.233c-14.019 0-25.55 10.782-25.615 24.117v403.586c0 26.67-22.742 48.298-50.789 48.298h-113.238v-233.329c0-50.851-43.252-91.983-96.659-91.983h-102.085c-53.408 0-96.722 41.131-96.722 91.983v233.329h-113.172c-28.045 0-50.979-21.628-50.979-48.298v-403.522c0-13.399-11.344-24.181-25.364-24.181-14.025 0-25.429 10.782-25.49 24.181v408.32c0 50.791 43.251 91.862 96.721 91.862h169.138v-276.887c0-26.737 22.874-48.361 50.917-48.361h91.987c28.043 0 50.915 21.623 50.915 48.361v276.887h169.141c53.408 0 96.72-41.070 96.72-91.862v-408.382c-0.125-13.335-11.527-24.117-25.427-24.117v0zM849.362 466.233z" p-id="2637" fill="#000000"></path></svg>