<?xml version="1.0" standalone="no"?><!DOCTYPE svg PUBLIC "-//W3C//DTD SVG 1.1//EN" "http://www.w3.org/Graphics/SVG/1.1/DTD/svg11.dtd"><svg t="1485272113626" class="icon" style="" viewBox="0 0 1024 1024" version="1.1" xmlns="http://www.w3.org/2000/svg" p-id="10636"  xmlns:xlink="http://www.w3.org/1999/xlink" width="64" height="64"><defs><style type="text/css"></style></defs><path d="M849.022 933.153 623.333 933.153c-8.477 0-15.35-6.872-15.35-15.35l0-280.63L416.691 637.173l0 280.629c0 8.477-6.873 15.35-15.35 15.35L175.653 933.152c-8.477 0-15.35-6.872-15.35-15.35L160.303 489.177 31.36 489.177c-6.32 0-11.994-3.874-14.296-9.76s-0.759-12.582 3.884-16.868L501.926 18.573c5.88-5.428 14.942-5.428 20.822 0l480.976 443.976c4.645 4.287 6.186 10.982 3.884 16.868-2.3 5.886-7.975 9.76-14.296 9.76L864.371 489.177l0 428.626C864.371 926.28 857.499 933.153 849.022 933.153z" p-id="10637" fill="rgb(248,89,89)"></path></svg>