<?xml version="1.0" standalone="no"?><!DOCTYPE svg PUBLIC "-//W3C//DTD SVG 1.1//EN" "http://www.w3.org/Graphics/SVG/1.1/DTD/svg11.dtd"><svg t="1485057987332" class="icon" style="" viewBox="0 0 1024 1024" version="1.1" xmlns="http://www.w3.org/2000/svg" p-id="11015" xmlns:xlink="http://www.w3.org/1999/xlink" width="64" height="64"><defs><style type="text/css"></style></defs><path d="M504.88781 64C381.336728 64 280.831444 164.48 280.831444 288 280.831444 411.52 381.336728 512 504.88781 512 628.406886 512 728.944177 411.52 728.944177 288 728.944177 164.48 628.470901 64 504.88781 64M504.88781 576C346.063854 576 216.815339 446.783999 216.815339 288 216.815339 129.216 346.063854 0 504.88781 0 663.711766 0 792.960282 129.216 792.960282 288 792.960282 446.783999 663.711766 576 504.88781 576" p-id="11016" fill="#000000"></path><path d="M931.856025 1024 92.156778 1024 130.214353 681.407999 308.051091 610.239999 331.865083 669.759999 189.621298 726.591999 163.662767 960 860.350036 960 834.391505 726.591999 692.147721 669.759999 715.961711 610.239999 893.798451 681.407999 931.856025 1024Z" p-id="11017" fill="#000000"></path></svg>