<?xml version="1.0" standalone="no"?><!DOCTYPE svg PUBLIC "-//W3C//DTD SVG 1.1//EN" "http://www.w3.org/Graphics/SVG/1.1/DTD/svg11.dtd"><svg t="1485327681986" class="icon" style="" viewBox="0 0 1024 1024" version="1.1" xmlns="http://www.w3.org/2000/svg" p-id="877" xmlns:xlink="http://www.w3.org/1999/xlink" width="64" height="64"><defs><style type="text/css"></style></defs><path d="M511.130508 817.450945c-46.221031 0-74.378629-11.544007-76.059571-12.255549-5.389474-2.269636-8.994619-7.428011-9.284101-13.262654-0.291915-5.989115-0.559503-11.98796-0.828308-17.981941-0.510851-11.576847-1.043595-23.542914-1.781895-35.221932-0.437872-6.946352-0.85385-7.160422-2.396133-7.95589-5.627871-2.914281-12.18257-5.089045-19.119191-7.391521-5.992764-1.995966-12.193517-4.052748-18.305479-6.757823-3.759617-1.663913-7.252862-3.549195-10.631774-5.373662-3.872734-2.094487-7.532614-4.067344-10.890848-5.309197-3.772996-1.40119-8.817038 2.679533-18.013565 11.76051-2.262338 2.233147-4.601304 4.542921-6.985274 6.639841l-23.850641 21.009339c-4.966197 4.373854-12.193517 5.036744-17.871256 1.62864-78.540845-47.127183-103.034914-105.628089-104.043236-108.092335-2.201523-5.412584-1.108059-11.614553 2.818192-15.942187l22.920163-25.287104c1.873119-2.062863 3.772996-4.1014 5.610842-6.075473 3.578387-3.836245 6.962164-7.458419 10.072271-11.19006 0.104603-0.585046 0.413546-3.602713-2.619934-10.515008-1.177389-2.679533-2.424108-5.338389-3.74867-8.145634-1.932718-4.1014-3.927468-8.345109-5.750718-12.807754-1.896229-4.645091-3.24755-9.517633-4.555084-14.23327-2.961717-10.659749-5.21919-17.745976-9.499388-19.062025-12.917222-3.972471-26.830603-4.328851-41.558911-4.705907-5.758016-0.145957-11.710642-0.300429-17.697324-0.678701-6.605785-0.423276-12.18257-5.064719-13.790533-11.488057-22.21227-88.853945 1.835413-147.547029 2.866845-150.000328 2.270852-5.388257 7.428011-8.995836 13.26752-9.284101l62.366342-3.057806c6.740795-21.307335 15.768255-41.831365 26.935205-61.242471L195.986782 226.666838c-4.377503-4.967414-5.035527-12.19595-1.62864-17.872473 47.122318-78.533547 105.62444-103.037347 108.092335-104.039587 5.417449-2.205172 11.614553-1.109276 15.943404 2.813327l49.22167 44.621582c17.275264-8.791495 35.650073-16.007868 54.854406-21.546948l3.318096-67.549043c0.284617-5.839509 3.894628-10.996667 9.279236-13.266303 2.456948-1.036297 61.142734-25.085196 150.003977-2.866845 6.420905 1.603098 11.068429 7.1811 11.485624 13.785668l4.502783 71.062965c19.41962 5.911271 38.147159 13.664037 55.913813 23.154911l52.283125-47.389906c4.333716-3.922603 10.534469-5.018499 15.943404-2.813327 2.469111 1.00224 60.97245 25.501175 108.094768 104.039587 3.405671 5.676523 2.74643 12.905059-1.627424 17.872473l-47.638033 54.082049c9.680619 17.655969 17.61948 36.165789 23.69252 55.255789l70.529005 3.464053c5.834643 0.284617 10.991802 3.894628 13.261438 9.279236 1.036297 2.456948 25.080331 61.146383 2.863196 150.005193-1.604314 6.418473-7.179883 11.065997-13.785668 11.483191l-69.641098 4.413992c-5.624222 20.359828-13.172647 39.876753-22.528511 58.257644l45.34772 50.029301c3.923819 4.333716 5.019715 10.529604 2.813327 15.942187-0.361244 0.891556-3.783943 9.096789-11.814028 21.548164-4.549003 7.057036-13.955951 9.091924-21.014204 4.539272-7.059469-4.549003-9.09314-13.958384-4.539272-21.01542 2.030023-3.151462 3.695153-5.957491 5.018499-8.317134l-45.522869-50.222694c-4.372638-4.829971-5.189999-11.9089-2.022725-17.601235 12.204464-21.933735 21.459374-45.881681 27.51052-71.176082 1.54958-6.492668 7.159206-11.21317 13.820941-11.634014l69.345534-4.396964c11.540358-54.642768 3.735291-94.504926-0.994942-111.276637l-70.878086-3.481082c-6.537671-0.318673-12.137567-4.789832-13.897569-11.096405-6.647139-23.800772-16.479797-46.717286-29.220654-68.118277-3.377695-5.669225-2.709941-12.872218 1.652967-17.827469l47.337605-53.737833c-30.481968-46.801212-64.184727-69.469598-79.38983-77.984991l-52.658965 47.731689c-4.907815 4.446833-12.132701 5.205811-17.859093 1.875551-21.425317-12.467187-44.575363-22.062664-68.807925-28.523707-6.309005-1.684591-10.840979-7.212724-11.255741-13.729718l-4.466294-70.459675c-54.234088-11.419943-94.369915-3.644068-111.281502 1.046027l-3.346071 68.154766c-0.323539 6.683629-4.986875 12.365017-11.475894 13.997306-24.300676 6.107097-47.212325 15.102933-68.101248 26.733298-5.6972 3.170923-12.779779 2.359643-17.607317-2.01786l-49.391954-44.771189c-15.240376 8.621212-49.134096 31.507318-79.426319 77.948502l42.574531 48.336196c4.441967 5.044041 5.046474 12.407588 1.487548 18.103572-14.31598 22.908-25.227505 47.679388-32.431714 73.624516-1.75392 6.315086-7.357465 10.798408-13.904866 11.119514l-62.680151 3.073618c-4.673067 16.848339-12.441644 56.908755-1.095896 111.052836 1.741757 0.048652 3.504192 0.098521 5.294601 0.142308 16.130715 0.414762 32.81242 0.84412 49.715493 6.038984 20.510651 6.306572 25.91472 25.777277 29.861649 39.991087 1.125088 4.051532 2.185711 7.878046 3.408103 10.875036 1.521605 3.731642 3.263362 7.430443 5.113371 11.354262 1.346456 2.863196 2.739132 5.826129 4.075858 8.866907 9.489658 21.610196 4.316687 34.767031-1.689456 41.999216-3.707316 4.462645-7.601943 8.637024-11.366426 12.672743-1.84636 1.982587-3.597848 3.854489-5.323793 5.759232L223.438919 635.617328c8.621212 15.23916 31.507318 49.135312 77.948502 79.427536l15.349844-13.519296c1.733243-1.52647 3.667177-3.439727 5.717878-5.461236 10.22431-10.095381 27.339021-26.985074 49.912535-18.642397 5.378527 1.986236 10.175657 4.575762 14.809802 7.081362 2.989692 1.610396 5.815183 3.138082 8.478903 4.320336 4.780102 2.112732 10.034565 3.858138 15.589457 5.704498 7.744252 2.570065 15.746361 5.231353 23.491829 9.230584 17.258236 8.917992 18.253178 24.618133 18.784706 33.053249 0.755329 11.967283 1.294155 24.080524 1.815952 35.792381 0.109468 2.467895 0.218936 4.933357 0.328404 7.402468 16.882396 4.682797 57.01944 12.458673 111.257176 1.043595l4.046666-63.845376c0.415978-6.525508 4.954034-12.056074 11.277635-13.733367 27.184549-7.209075 53.005614-18.383323 76.750435-33.213802 5.702066-3.562575 13.05953-2.956852 18.103572 1.486332l49.16572 43.305534c0.960886-0.625184 1.910824-1.254017 2.854682-1.885282 4.576978-3.3631 32.064388-20.680935 82.018278-21.590735 0.093656 0 0.192177 0 0.282184 0 8.269698 0 15.046982 6.622813 15.197805 14.926568 0.149606 8.393762-6.530373 15.326734-14.929 15.47634-42.444386 0.776006-64.297844 15.487287-64.611652 15.729333-0.235964 0.178798-0.479227 0.351514-0.726138 0.518148-4.448049 2.981178-9.094357 5.92465-13.808778 8.756222-5.676523 3.411752-12.903843 2.750079-17.876122-1.623775l-49.329922-43.452708c-20.414562 11.732535-42.10017 21.095697-64.69801 27.949609l-4.084372 64.426773c-0.418411 6.607001-5.064719 12.183786-11.485624 13.786884C557.18977 815.034135 532.267559 817.450945 511.130508 817.450945L511.130508 817.450945zM511.130508 817.450945" p-id="878" fill="rgb(247,106,145)"></path><path d="M513.828286 617.277792c-50.688541 0-98.346036-19.73951-134.18707-55.579327-35.84225-35.841034-55.582976-83.500961-55.582976-134.188286 0-50.687325 19.73951-98.342387 55.582976-134.182204 35.843466-35.847115 83.498528-55.58176 134.18707-55.58176 50.687325 0 98.344819 19.735861 134.185853 55.58176 35.839818 35.841034 55.58176 83.494879 55.58176 134.182204 0 50.687325-19.738294 98.347252-55.58176 134.188286C612.173105 597.538282 564.515611 617.277792 513.828286 617.277792L513.828286 617.277792zM513.828286 268.152771c-87.874815 0-159.362273 71.488674-159.362273 159.356191 0 87.872382 71.486242 159.362273 159.362273 159.362273 87.871166 0 159.361057-71.488674 159.361057-159.362273C673.188126 339.641445 601.699452 268.152771 513.828286 268.152771L513.828286 268.152771zM513.828286 268.152771" p-id="879" fill="rgb(247,106,145)"></path></svg>