<?xml version="1.0" standalone="no"?><!DOCTYPE svg PUBLIC "-//W3C//DTD SVG 1.1//EN" "http://www.w3.org/Graphics/SVG/1.1/DTD/svg11.dtd"><svg t="1485327671699" class="icon" style="" viewBox="0 0 1024 1024" version="1.1" xmlns="http://www.w3.org/2000/svg" p-id="753" xmlns:xlink="http://www.w3.org/1999/xlink" width="64" height="64"><defs><style type="text/css"></style></defs><path d="M1003.480152 401.225057c-8.05649-24.472368-31.550577-43.048445-69.841671-55.206346-0.49528-0.173962-0.991584-0.320295-1.518586-0.436952l-207.836559-51.221592c-45.065382-62.444191-90.186022-124.845403-135.309732-187.275267-0.176009-0.234337-0.581238-0.815575-0.788969-1.036609-21.715581-27.595498-48.768727-42.787502-76.146261-42.787502-19.788695 0-48.828079 7.749498-75.008344 45.033659L321.306378 279.081183c-51.835575 14.285355-103.671151 28.602432-155.535379 42.946115l-75.798337 20.927635c-35.314297 10.403954-57.613162 27.275203-66.281589 50.099025-9.136078 23.990391-2.713808 51.980885 19.584034 85.544305 0.525979 0.802272 1.13894 1.591241 1.780553 2.321882 45.326325 52.127218 90.683349 104.296391 136.007627 156.540266-2.305509 75.273381-4.696975 150.618393-7.091512 225.963405-3.443425 36.07359 2.306532 61.494563 17.540492 77.706803 11.558244 12.302187 27.640524 18.519796 47.77919 18.519796 15.439644 0 33.739429-3.66139 58.46046-11.82021l200.13004-73.989131c75.506694 25.582655 151.10037 51.105958 227.626277 76.878948 14.944364 4.376681 28.746718 6.580882 41.12463 6.580882 28.133757 0 75.971275-11.760858 79.763648-90.579995 0.029676-0.817622 0.029676-1.619894 0-2.422166-4.201695-67.172889-8.435113-134.200468-12.668531-201.271026l-0.054235-0.874927 147.418514-180.051749C1003.83217 452.359668 1011.35961 425.142793 1003.480152 401.225057M944.029132 454.723505 791.558555 640.933511c-3.560082 4.348028-5.341658 9.821693-4.990664 15.352663l0.61296 9.499351c4.170996 66.632583 8.404414 133.236514 12.550851 199.999057-2.568499 46.436612-22.416546 46.436612-33.096792 46.436612-7.766894 0-17.075911-1.559519-26.677593-4.348028-78.278831-26.414603-156.527986-52.81181-234.717789-79.314417-5.223978-1.735527-10.885931-1.663896-16.052604 0.218988l-207.312626 76.673264c-18.62008 6.142907-32.57286 9.135054-42.581818 9.135054-9.689686 0-12.287861-2.744507-13.250792-3.764744-2.685155-2.861164-8.610098-12.855796-5.545296-43.852764 0.057305-0.481977 0.085958-0.961908 0.085958-1.444908 2.511193-78.468143 4.964058-156.920936 7.386224-235.300051 0.173962-5.517667-1.7519-10.916631-5.459339-15.149025-46.901193-54.067406-93.834108-108.063181-140.736325-162.013931-12.901845-19.730367-17.862833-35.08303-14.301727-44.465724 4.200672-11.062963 21.946848-18.358113 35.722596-22.415522l75.389014-20.837584c54.66604-15.089673 109.2451-30.16502 163.852812-45.209668 5.398964-1.489934 10.06831-4.801353 13.134135-9.326413l120.306017-177.511903c7.967462-11.382235 20.722974-24.953322 36.161594-24.953322 12.462846 0 26.327622 8.872065 38.700417 24.574698 46.75793 64.706721 93.541443 129.383766 140.243091 194.089463 3.210112 4.452405 7.938809 7.618515 13.366426 8.946766l215.455073 53.118801c22.151509 7.151887 36.07359 16.301268 39.22742 25.816992C962.035228 424.004877 956.520631 438.33628 944.029132 454.723505" p-id="754" fill="rgb(247,150,47)"></path></svg>