<?xml version="1.0" standalone="no"?><!DOCTYPE svg PUBLIC "-//W3C//DTD SVG 1.1//EN" "http://www.w3.org/Graphics/SVG/1.1/DTD/svg11.dtd"><svg t="1485271836279" class="icon" style="" viewBox="0 0 1024 1024" version="1.1" xmlns="http://www.w3.org/2000/svg" p-id="2136" xmlns:xlink="http://www.w3.org/1999/xlink" width="64" height="64"><defs><style type="text/css"></style></defs><path d="M972.6336 0 51.19104 0C22.9184 0 0 22.92352 0 51.18848l0 921.4464c0 28.26752 22.9184 51.18848 51.19104 51.18848L972.6336 1023.82336c28.27264 0 51.19104-22.92096 51.19104-51.18848L1023.82464 51.18848C1023.82464 22.92352 1000.90624 0 972.6336 0zM708.8576 552.17152c-77.71904 47.39328-210.624 128.4416-287.95008 175.59424-27.45856 14.50752-59.0976 9.73952-60.7104-26.38464 0-96.95104-1.85856-280.84224 0-376.15104 2.56256-35.58272 29.25056-43.67872 60.992-23.52768 77.4144 47.62368 213.37216 124.4864 288.34688 175.83872C767.86816 518.912 708.34816 551.85664 708.8576 552.17152z" p-id="2137" fill="rgb(248,89,89)"></path></svg>